<?xml version="1.0" standalone="no"?>
<!DOCTYPE svg PUBLIC "-//W3C//DTD SVG 20010904//EN"
 "http://www.w3.org/TR/2001/REC-SVG-20010904/DTD/svg10.dtd">
<svg version="1.0" xmlns="http://www.w3.org/2000/svg"
 width="400.000000pt" height="400.000000pt" viewBox="0 0 400.000000 400.000000"
 preserveAspectRatio="xMidYMid meet">
<metadata>
Created by potrace 1.11, written by Peter Selinger 2001-2013
</metadata>
<g transform="translate(0.000000,400.000000) scale(0.100000,-0.100000)"
fill="#000000" stroke="none">
<path d="M1822 3989 c-776 -64 -1465 -607 -1714 -1351 -287 -859 34 -1796 785
-2298 912 -610 2151 -365 2762 545 534 794 432 1850 -244 2526 -339 339 -775
540 -1255 579 -143 11 -184 11 -334 -1z m563 -83 c287 -61 542 -175 776 -347
115 -84 340 -314 419 -426 167 -240 267 -469 328 -753 25 -117 26 -141 26
-380 0 -239 -1 -263 -26 -380 -82 -379 -245 -692 -503 -959 -60 -62 -144 -141
-185 -174 -80 -65 -217 -157 -232 -157 -5 0 -30 22 -56 49 -26 27 -74 63 -107
80 -33 18 -79 46 -103 62 -84 60 -66 18 49 -112 72 -81 80 -95 77 -126 -3 -34
-6 -36 -93 -73 -115 -49 -294 -103 -415 -125 -59 -11 -169 -19 -290 -22 -216
-6 -356 8 -524 52 -103 27 -285 90 -298 103 -11 11 22 117 47 156 10 14 14 26
11 26 -9 0 -103 -56 -145 -86 -19 -13 -43 -24 -55 -24 -26 1 -190 105 -295
188 -43 35 -130 116 -193 180 -260 269 -424 581 -506 962 -25 117 -26 141 -26
380 0 239 1 263 26 380 85 395 249 699 528 981 237 240 469 385 778 488 218
72 358 91 642 86 195 -3 241 -7 345 -29z"/>
<path d="M1990 3842 c0 -4 4 -12 9 -17 5 -6 12 -20 16 -32 6 -20 3 -23 -24
-23 -20 0 -31 -5 -31 -14 0 -8 -16 -23 -35 -35 l-35 -20 -11 20 c-10 19 -12
20 -29 4 -17 -15 -19 -15 -23 2 -3 10 -5 3 -6 -15 0 -18 -6 -42 -11 -53 -14
-25 -60 -26 -60 -1 0 14 -2 15 -10 2 -5 -8 -10 -25 -10 -37 0 -13 -4 -23 -9
-23 -5 0 -12 10 -16 23 -7 21 -7 21 -14 -7 l-6 -29 -15 27 c-8 15 -22 32 -32
37 -15 8 -18 6 -18 -18 0 -15 6 -40 14 -54 13 -25 12 -27 -15 -43 -28 -16 -30
-16 -36 1 -6 15 -9 13 -14 -12 -6 -30 -6 -30 -30 23 -24 51 -39 59 -39 20 0
-25 -25 -23 -38 5 -10 20 -11 18 -11 -17 -1 -37 -2 -38 -19 -23 -22 20 -52 22
-52 5 0 -7 9 -28 21 -47 26 -43 18 -52 -12 -12 -30 41 -39 39 -39 -6 -1 -36
-2 -37 -15 -19 -14 18 -15 17 -15 -25 -1 -41 -2 -43 -15 -25 -14 19 -15 19
-15 -9 0 -27 -1 -27 -19 -11 -19 17 -20 17 -31 -5 -8 -15 -10 -45 -7 -86 5
-49 3 -63 -7 -63 -8 0 -17 -7 -20 -15 -3 -9 -19 -21 -36 -26 -16 -6 -30 -17
-30 -24 0 -8 -10 -15 -22 -17 -14 -2 -30 -21 -51 -62 -33 -66 -43 -97 -62
-206 -7 -42 -20 -100 -28 -130 -36 -128 -43 -357 -16 -464 6 -21 12 -63 15
-94 3 -31 11 -63 19 -72 8 -9 15 -24 15 -33 0 -18 38 -47 88 -66 17 -8 33 -19
34 -25 1 -6 2 -69 4 -141 1 -71 7 -146 13 -165 6 -19 11 -70 11 -113 0 -60 6
-91 25 -140 15 -35 32 -110 41 -172 8 -60 26 -151 39 -202 49 -187 187 -406
304 -485 26 -17 60 -43 76 -58 34 -31 112 -62 217 -86 52 -12 104 -15 192 -12
112 4 127 6 196 38 126 57 185 110 306 275 98 133 130 212 175 438 28 140 52
232 80 301 33 82 42 121 54 235 9 81 13 163 9 203 l-7 68 46 20 c52 23 62 36
110 148 35 81 36 88 43 245 4 115 3 171 -6 192 -6 17 -14 71 -17 120 -3 50
-11 109 -19 133 -8 23 -14 58 -14 77 0 18 -4 36 -9 40 -5 3 -12 18 -16 34 -4
19 -14 31 -30 35 -16 4 -26 16 -30 36 -4 16 -12 30 -20 30 -16 0 -25 32 -25
97 0 28 -5 55 -10 58 -6 4 -25 31 -41 61 -17 30 -35 54 -41 54 -5 0 -20 13
-34 29 -14 17 -33 32 -42 36 -9 3 -27 21 -40 41 -22 33 -25 35 -41 20 -24 -21
-37 -20 -55 5 -10 14 -21 19 -32 15 -24 -9 -61 18 -83 62 -24 47 -117 142
-139 142 -12 0 -5 -11 21 -36 20 -20 37 -40 37 -45 0 -17 -37 -9 -55 11 -10
11 -23 20 -30 20 -7 0 -20 9 -29 19 -10 11 -24 17 -31 15 -7 -3 -34 13 -60 36
-26 23 -72 55 -101 72 -30 16 -57 34 -60 39 -7 11 -24 12 -24 1z m225 -827
c33 -9 90 -23 128 -29 51 -9 75 -20 100 -42 17 -17 49 -39 70 -50 21 -10 45
-27 54 -36 9 -10 26 -18 39 -18 23 0 64 -44 117 -127 29 -46 33 -83 16 -161
-8 -39 -7 -62 6 -113 9 -35 20 -82 25 -104 5 -22 20 -65 34 -95 16 -34 26 -73
26 -102 0 -43 -2 -47 -28 -53 -16 -3 -40 -2 -53 3 -44 17 -191 44 -309 57
l-115 12 82 2 c46 0 119 -6 163 -15 45 -9 83 -14 87 -11 14 15 -39 61 -103 90
-74 34 -72 34 -275 28 -45 -2 -148 -96 -127 -117 3 -2 35 3 72 13 51 12 70 13
78 5 9 -9 4 -12 -23 -12 -18 0 -71 -9 -117 -20 -92 -22 -219 -26 -287 -9 -35
9 -44 16 -48 38 -7 34 -90 101 -126 102 -203 6 -201 6 -275 -28 -64 -29 -117
-75 -103 -90 4 -3 42 2 87 11 44 9 117 15 163 15 l82 -1 -119 -14 c-65 -7
-165 -25 -223 -39 -58 -14 -109 -23 -114 -19 -14 9 -10 128 5 160 8 16 18 61
22 99 3 39 15 85 25 103 12 22 19 53 19 89 0 44 5 63 24 87 15 20 26 52 31 91
12 96 68 164 195 233 91 50 128 59 297 70 56 4 105 11 110 16 13 13 223 0 288
-19z m-470 -865 l30 -8 -35 -1 c-19 0 -42 4 -50 9 -12 8 -11 10 5 9 11 -1 34
-5 50 -9z m-6 -55 c62 -7 126 -36 141 -64 33 -62 -7 -210 -74 -277 -52 -53
-103 -68 -226 -68 -200 1 -258 47 -268 214 -6 114 7 141 83 169 58 22 194 40
255 35 19 -2 59 -6 89 -9z m864 -24 c72 -28 87 -54 87 -152 0 -93 -16 -143
-57 -179 -44 -39 -100 -53 -208 -53 -112 0 -165 14 -214 59 -63 56 -106 191
-87 268 15 61 104 87 286 83 111 -3 145 -8 193 -26z m-1353 -16 c0 -8 -4 -15
-10 -15 -5 0 -10 7 -10 15 0 8 5 15 10 15 6 0 10 -7 10 -15z m1522 -10 c0 -5
-5 -11 -11 -13 -6 -2 -11 4 -11 13 0 9 5 15 11 13 6 -2 11 -8 11 -13z m-1522
-40 c0 -8 -4 -15 -10 -15 -5 0 -10 7 -10 15 0 8 5 15 10 15 6 0 10 -7 10 -15z
m1522 0 c0 -5 -5 -11 -11 -13 -6 -2 -11 4 -11 13 0 9 5 15 11 13 6 -2 11 -8
11 -13z m-709 -37 c9 -11 17 -27 17 -36 0 -8 18 -53 40 -99 59 -121 109 -154
261 -169 79 -8 186 9 248 38 50 24 78 74 106 190 15 57 21 68 46 79 16 6 32 9
35 6 4 -3 6 -66 6 -139 0 -107 -4 -144 -20 -188 -11 -30 -24 -68 -30 -85 -16
-47 -32 -123 -32 -153 0 -16 -14 -77 -30 -137 -25 -86 -39 -119 -74 -164 -24
-31 -73 -114 -110 -186 -76 -146 -112 -185 -216 -239 -99 -51 -175 -62 -333
-49 -109 9 -154 18 -262 53 -116 38 -137 48 -190 95 -69 60 -95 116 -95 206 0
52 -4 60 -59 135 -50 67 -64 95 -90 185 -17 58 -37 138 -46 177 -8 40 -21 85
-29 100 -22 43 -43 379 -25 396 4 4 20 -1 38 -11 22 -13 34 -30 42 -58 26 -95
53 -162 77 -188 66 -70 324 -88 435 -30 62 32 112 103 152 218 14 41 29 64 45
72 31 15 70 7 93 -19z"/>
<path d="M1978 1294 c-4 -3 -66 -8 -140 -10 -73 -3 -151 -10 -172 -15 -50 -13
-97 -59 -90 -87 3 -11 1 -23 -5 -26 -13 -9 -15 -46 -2 -46 5 0 23 11 40 25 24
21 43 27 94 29 36 2 74 9 86 15 11 7 63 12 115 12 l94 0 4 42 c6 56 -4 82 -24
61z"/>
<path d="M2040 1243 c0 -55 0 -55 28 -50 15 3 34 2 42 -3 8 -5 19 -5 25 0 11
9 40 8 51 -2 3 -4 14 -2 23 4 13 8 23 8 36 0 15 -8 22 -7 30 5 9 12 17 11 55
-11 25 -14 51 -26 59 -26 8 0 25 -10 38 -22 l23 -21 0 34 c-1 43 -26 91 -64
120 -25 20 -38 22 -110 20 -112 -3 -176 -3 -208 3 -28 4 -28 4 -28 -51z"/>
</g>
</svg>
