<?xml version="1.0" standalone="no"?>
<!DOCTYPE svg PUBLIC "-//W3C//DTD SVG 20010904//EN"
 "http://www.w3.org/TR/2001/REC-SVG-20010904/DTD/svg10.dtd">
<svg version="1.0" xmlns="http://www.w3.org/2000/svg"
 width="400.000000pt" height="400.000000pt" viewBox="0 0 400.000000 400.000000"
 preserveAspectRatio="xMidYMid meet">
<metadata>
Created by potrace 1.11, written by Peter Selinger 2001-2013
</metadata>
<g transform="translate(0.000000,400.000000) scale(0.100000,-0.100000)"
fill="#000000" stroke="none">
<path d="M1780 3989 c-355 -40 -714 -185 -1005 -408 -85 -64 -256 -232 -328
-321 -196 -243 -346 -559 -406 -855 -87 -436 -35 -866 154 -1262 102 -214 205
-361 370 -532 173 -179 337 -298 560 -407 553 -272 1197 -272 1750 0 223 109
387 228 560 407 165 171 268 318 370 532 332 694 234 1515 -252 2117 -72 89
-243 257 -328 321 -296 227 -649 368 -1017 408 -111 13 -318 12 -428 0z m435
-59 c671 -77 1251 -494 1541 -1105 60 -128 93 -222 128 -361 44 -179 51 -240
51 -464 0 -224 -7 -285 -51 -464 -113 -456 -381 -848 -769 -1124 -120 -85
-125 -86 -188 -24 -29 27 -72 60 -97 72 -25 13 -58 32 -75 44 -37 26 -74 46
-86 46 -19 0 23 -61 101 -150 95 -108 100 -129 39 -160 -118 -61 -330 -125
-514 -156 -138 -24 -452 -24 -590 0 -168 28 -436 107 -469 137 -11 10 7 78 36
132 11 21 17 41 14 45 -7 6 -80 -31 -111 -58 -30 -25 -73 -50 -85 -50 -20 0
-151 82 -255 159 -305 226 -557 576 -678 942 -281 852 59 1785 826 2261 230
143 524 246 793 277 102 12 336 12 439 1z"/>
<path d="M1988 3837 c6 -7 15 -24 21 -38 9 -24 8 -26 -15 -21 -20 3 -26 0 -31
-17 -5 -20 -49 -51 -73 -51 -5 0 -10 7 -10 15 0 19 -9 19 -32 -2 -17 -15 -18
-15 -19 3 -1 10 -5 -1 -10 -25 -5 -25 -14 -48 -21 -53 -21 -13 -48 -9 -48 8 0
8 -4 12 -10 9 -5 -3 -10 -17 -10 -31 0 -28 -8 -31 -26 -6 -12 16 -13 15 -14
-8 0 -25 0 -25 -26 8 -14 17 -30 32 -35 32 -14 0 -11 -63 6 -86 13 -20 12 -22
-12 -33 -19 -9 -29 -9 -39 0 -11 9 -14 7 -14 -12 0 -30 -16 -15 -40 38 l-18
38 -11 -27 c-13 -34 -24 -35 -39 -5 -10 20 -11 18 -11 -17 -1 -37 -2 -38 -19
-23 -44 40 -70 5 -32 -43 11 -14 20 -29 20 -35 0 -5 -12 5 -26 23 -33 42 -44
41 -44 -5 0 -35 -1 -36 -15 -17 -14 18 -14 17 -15 -13 0 -33 -15 -52 -23 -31
-3 7 -6 0 -6 -16 -1 -28 -1 -29 -21 -11 -11 10 -23 15 -27 11 -4 -4 -10 -41
-14 -84 -3 -42 -7 -72 -8 -67 -2 6 -6 -1 -10 -15 -4 -14 -20 -31 -36 -39 -17
-8 -32 -18 -34 -23 -2 -5 -13 -13 -26 -18 -28 -11 -86 -130 -102 -210 -7 -30
-16 -77 -21 -105 -6 -27 -18 -77 -26 -110 -22 -81 -31 -283 -17 -370 6 -38 16
-106 23 -150 6 -44 17 -84 24 -90 6 -5 14 -22 18 -37 4 -20 17 -31 52 -44 69
-26 75 -40 68 -166 -5 -68 -3 -123 4 -150 6 -24 14 -83 16 -133 4 -64 12 -108
30 -153 14 -35 32 -112 40 -172 21 -153 49 -254 100 -364 66 -142 153 -258
237 -318 24 -17 58 -44 74 -59 40 -37 186 -85 303 -100 252 -32 424 51 609
296 102 136 137 220 183 444 22 107 52 227 66 265 15 39 35 96 46 126 23 62
33 164 32 322 l0 107 37 17 c51 22 74 49 99 114 11 30 27 69 34 85 7 17 19 93
26 170 11 123 10 147 -4 201 -9 34 -16 96 -16 137 0 44 -6 89 -15 110 -8 20
-15 50 -15 66 0 46 -38 136 -63 146 -13 6 -24 22 -27 40 -4 21 -11 29 -23 27
-15 -2 -17 6 -17 60 0 58 -4 69 -46 133 -24 38 -66 87 -92 108 -26 21 -61 55
-79 75 -31 36 -32 37 -47 17 -16 -20 -16 -20 -38 5 -14 15 -31 24 -45 22 -33
-5 -61 14 -82 56 -26 50 -110 137 -141 147 -23 7 -22 4 13 -32 35 -37 47 -63
29 -63 -9 0 -94 60 -103 73 -3 4 -12 5 -20 2 -8 -3 -26 5 -39 17 -37 35 -142
108 -156 108 -6 0 -17 7 -24 15 -7 8 -19 15 -27 15 -12 0 -13 -3 -5 -13z m212
-821 c30 -9 91 -23 135 -30 65 -11 84 -19 105 -42 15 -16 44 -38 65 -49 22
-11 51 -30 65 -42 14 -11 37 -23 50 -25 18 -2 39 -25 77 -82 57 -85 60 -98 41
-188 -11 -53 -10 -67 16 -170 16 -62 37 -130 48 -151 10 -21 22 -60 25 -87 8
-70 -8 -76 -128 -45 -63 16 -83 24 -61 25 l34 0 -19 30 c-12 20 -45 42 -91 65
-71 34 -72 34 -190 30 -116 -3 -120 -4 -166 -36 -47 -34 -69 -75 -47 -89 17
-10 -90 -30 -163 -30 -34 0 -83 6 -111 13 -42 11 -50 18 -57 43 -5 19 -24 41
-54 63 -46 32 -50 33 -166 36 -118 4 -119 4 -190 -30 -48 -23 -78 -45 -92 -66
l-20 -32 49 6 c28 4 79 11 115 17 36 5 85 9 110 8 30 0 17 -4 -39 -9 -46 -5
-127 -19 -180 -30 -53 -12 -113 -23 -133 -26 l-38 -5 0 61 c0 38 6 74 16 94
10 17 20 66 25 107 5 49 15 89 29 113 18 31 21 46 15 83 -6 39 -3 50 15 69 14
15 27 49 35 93 22 114 80 181 212 246 81 41 141 54 295 65 54 4 101 11 105 15
13 13 202 0 263 -18z m248 -863 c-15 -2 -42 -2 -60 0 -18 2 -6 4 27 4 33 0 48
-2 33 -4z m-185 -10 c-7 -2 -21 -2 -30 0 -10 3 -4 5 12 5 17 0 24 -2 18 -5z
m312 -4 c20 -5 9 -6 -30 -2 -33 3 -62 7 -64 9 -8 7 63 2 94 -7z m-772 -60 c21
-7 50 -26 64 -43 23 -28 25 -36 19 -91 -9 -91 -58 -181 -120 -220 -48 -29 -52
-30 -180 -30 -117 0 -136 3 -178 23 -66 33 -93 89 -92 197 0 45 5 90 12 102
31 55 148 84 317 79 66 -3 137 -10 158 -17z m776 -4 c30 -9 68 -30 84 -46 29
-29 29 -31 25 -117 -5 -112 -26 -158 -88 -192 -42 -23 -55 -25 -175 -25 -115
0 -135 3 -172 22 -68 37 -116 123 -128 228 -7 56 -5 63 19 92 39 46 119 64
266 59 69 -3 137 -11 169 -21z m-1329 -15 c0 -5 -4 -10 -10 -10 -5 0 -10 5
-10 10 0 6 5 10 10 10 6 0 10 -4 10 -10z m1520 -10 c0 -5 -5 -10 -11 -10 -5 0
-7 5 -4 10 3 6 8 10 11 10 2 0 4 -4 4 -10z m-1520 -50 c0 -5 -4 -10 -10 -10
-5 0 -10 5 -10 10 0 6 5 10 10 10 6 0 10 -4 10 -10z m1520 0 c0 -5 -2 -10 -4
-10 -3 0 -8 5 -11 10 -3 6 -1 10 4 10 6 0 11 -4 11 -10z m-718 -27 c9 -10 21
-36 28 -58 35 -110 99 -197 168 -228 55 -24 205 -33 286 -18 125 23 160 59
197 197 19 72 27 87 50 100 15 8 30 14 34 14 3 0 5 -60 5 -133 0 -133 -14
-214 -44 -262 -7 -11 -21 -65 -30 -120 -31 -183 -63 -284 -110 -345 -23 -30
-73 -113 -110 -185 -37 -71 -84 -147 -104 -167 -47 -50 -151 -102 -240 -122
-181 -41 -543 39 -660 145 -56 51 -91 128 -91 208 -1 50 -5 60 -58 130 -49 65
-61 91 -90 191 -19 63 -40 146 -48 183 -8 38 -20 77 -25 88 -6 10 -12 50 -14
87 -2 38 -9 86 -16 106 -13 39 -11 179 3 192 4 5 20 1 35 -8 19 -12 32 -33 45
-75 64 -206 96 -228 327 -228 110 0 131 3 172 23 26 13 62 40 79 60 34 39 82
136 94 189 3 18 14 37 23 43 27 15 78 12 94 -7z"/>
<path d="M1824 1288 c-2 -3 -37 -6 -78 -6 -101 1 -166 -35 -173 -97 -1 -11 -5
-35 -9 -54 -6 -32 -6 -33 17 -21 13 7 32 19 42 28 17 15 37 20 112 25 22 2 46
7 53 11 7 4 56 10 109 12 53 2 98 6 101 9 3 2 7 27 10 54 l4 49 -92 -1 c-50
-1 -94 -5 -96 -9z"/>
<path d="M2034 1250 c1 -36 7 -55 18 -61 11 -6 19 -6 23 1 4 7 13 7 26 -1 14
-7 24 -7 33 0 8 7 20 6 39 -4 23 -12 28 -12 35 2 8 13 13 13 33 3 19 -11 25
-10 33 2 8 13 15 12 50 -8 23 -13 49 -24 59 -24 9 0 26 -9 38 -21 25 -25 32
-20 31 20 -1 38 -23 80 -58 110 -27 23 -36 25 -139 24 -60 0 -119 -1 -130 -2
-11 -1 -37 2 -57 5 l-37 6 3 -52z"/>
</g>
</svg>
